<?xml version="1.0" standalone="no"?>
<!DOCTYPE svg PUBLIC "-//W3C//DTD SVG 20010904//EN"
 "http://www.w3.org/TR/2001/REC-SVG-20010904/DTD/svg10.dtd">
<svg version="1.0" xmlns="http://www.w3.org/2000/svg"
 width="512.000000pt" height="512.000000pt" viewBox="0 0 540 505"
 preserveAspectRatio="xMidYMid meet">

<g transform="translate(0.000000,512.000000) scale(0.100000,-0.100000)"
fill="white" stroke="white" stroke-width="250">
<path d="M3205 5111 c-77 -13 -152 -36 -316 -101 -223 -88 -254 -91 -399 -37
-95 36 -263 83 -359 101 -97 19 -261 21 -347 5 -146 -27 -303 -112 -433 -234
-74 -70 -100 -119 -87 -168 3 -14 139 -225 301 -470 162 -246 295 -450 295
-455 0 -5 -24 -28 -54 -51 -111 -84 -276 -233 -426 -387 -655 -670 -1017
-1488 -1014 -2289 1 -160 4 -191 26 -275 65 -240 209 -446 403 -575 100 -66
144 -88 241 -121 165 -55 133 -54 1524 -54 1391 0 1359 -1 1524 54 317 107
555 363 644 696 22 84 25 115 26 275 2 589 -191 1183 -564 1740 -214 320 -570
701 -877 939 -35 27 -63 53 -63 57 0 5 122 235 272 511 258 478 272 506 273
557 0 53 0 54 -67 115 -70 66 -151 114 -245 147 -65 23 -200 32 -278 20z m176
-256 c46 -11 129 -50 129 -59 0 -1 -114 -214 -253 -472 l-252 -469 -448 -3
-448 -2 -274 414 c-151 228 -275 418 -275 423 1 12 79 67 136 95 80 40 142 53
254 53 127 -1 206 -18 429 -93 154 -52 173 -56 256 -56 110 1 166 15 380 100
143 55 218 77 295 83 9 0 41 -6 71 -14z m-278 -1312 c504 -383 929 -909 1160
-1433 155 -355 230 -699 231 -1065 1 -194 0 -202 -27 -280 -41 -117 -100 -210
-186 -295 -88 -87 -173 -139 -286 -178 l-80 -27 -1355 0 -1355 0 -80 27 c-116
40 -199 92 -290 183 -91 91 -143 174 -183 290 -26 78 -27 86 -26 295 1 295 37
507 134 800 207 622 643 1207 1255 1682 l60 47 483 1 484 0 61 -47z"/>
<path d="M2499 2811 l-39 -39 0 -110 0 -111 -47 -6 c-27 -3 -73 -13 -103 -21
-162 -47 -284 -188 -310 -359 -37 -237 129 -466 366 -505 33 -6 137 -10 233
-10 207 0 243 -11 292 -88 54 -86 35 -191 -45 -257 l-38 -30 -317 -5 c-351 -6
-350 -5 -391 -73 -36 -59 -18 -126 46 -168 25 -16 49 -19 172 -19 l142 0 0
-105 c0 -121 11 -151 63 -184 57 -35 121 -22 166 35 18 23 21 40 21 139 l0
112 58 7 c213 24 369 168 404 372 36 214 -89 420 -301 496 -47 17 -92 21 -277
27 -218 6 -221 6 -261 33 -109 72 -109 239 -1 314 l41 29 311 5 c284 5 313 7
339 24 57 39 73 113 37 171 -33 54 -70 65 -219 65 l-131 0 0 106 c0 117 -11
148 -60 178 -16 9 -47 16 -70 16 -36 0 -48 -6 -81 -39z"/>
</g>
</svg>
